<svg xmlns="http://www.w3.org/2000/svg" viewBox="0 0 120 120" role="img" aria-labelledby="title desc">
  <title id="title">スマホ小銭研究所 フラスコロゴ</title>
  <desc id="desc">フラスコとコインのブランドマーク</desc>
  <defs>
    <linearGradient id="mint" x1="0" x2="1" y1="0" y2="1"><stop offset="0" stop-color="#48c7a1"/><stop offset="1" stop-color="#19795f"/></linearGradient>
    <linearGradient id="gold" x1="0" x2="1" y1="0" y2="1"><stop offset="0" stop-color="#fff2a7"/><stop offset=".55" stop-color="#e6bf54"/><stop offset="1" stop-color="#b98a1f"/></linearGradient>
    <filter id="soft" x="-30%" y="-30%" width="160%" height="160%"><feDropShadow dx="0" dy="8" stdDeviation="8" flood-color="#162235" flood-opacity="0.14"/></filter>
  </defs>
  <rect width="120" height="120" rx="30" fill="#f6fbf9"/>
  <g filter="url(#soft)">
    <path d="M44 11h34v13h-9v24l31 43c7 10 0 23-12 23H34c-12 0-19-13-12-23l31-43V24h-9V11Z" fill="#fff" stroke="url(#mint)" stroke-width="7" stroke-linejoin="round"/>
    <path d="M37 86h49L73 67H50L37 86Z" fill="url(#mint)" opacity=".90"/>
    <circle cx="62" cy="76" r="21" fill="url(#gold)" stroke="#fff7c9" stroke-width="4"/>
    <path d="M54 68h16M56 74h12M62 63v26" stroke="#9b7117" stroke-width="4" stroke-linecap="round"/>
    <circle cx="80" cy="8" r="7" fill="#48c7a1"/>
    <circle cx="62" cy="1" r="4" fill="#8bd9c2"/>
  </g>
</svg>
